<svg width="55" height="55" viewBox="0 0 55 55" fill="none" xmlns="http://www.w3.org/2000/svg">
<circle cx="27.5" cy="27.5" r="27.5" fill="#FBC257"/>
<path fill-rule="evenodd" clip-rule="evenodd" d="M31.2428 20.7376C31.2428 22.9586 33.0459 24.759 35.2702 24.759C35.5151 24.7578 35.7594 24.7343 36 24.6888V32.6615C36 36.0156 34.0215 38 30.6624 38H23.3464C19.9785 38 18 36.0156 18 32.6615V25.3561C18 22.002 19.9785 20 23.3464 20H31.3131C31.2659 20.243 31.2423 20.49 31.2428 20.7376ZM29.15 30.8966L32.0078 27.2088V27.1912C32.2525 26.8625 32.1901 26.3989 31.8671 26.1463C31.7108 26.0257 31.5122 25.9735 31.3167 26.0016C31.1211 26.0297 30.9453 26.1358 30.8295 26.2956L28.4201 29.3951L25.6766 27.2351C25.52 27.1131 25.3207 27.0592 25.1238 27.0856C24.9269 27.1121 24.749 27.2166 24.6302 27.3756L21.6756 31.1863C21.5718 31.3158 21.5159 31.4771 21.5173 31.6429C21.5002 31.9781 21.7119 32.2826 22.0324 32.3838C22.3529 32.485 22.7014 32.3573 22.8803 32.0732L25.3512 28.8771L28.0948 31.0283C28.2508 31.1541 28.4514 31.2111 28.6504 31.1863C28.8494 31.1615 29.0297 31.0569 29.15 30.8966Z" fill="white"/>
<circle opacity="0.4" cx="35.5" cy="20.5" r="2.5" fill="white"/>
</svg>
